<svg xmlns="http://www.w3.org/2000/svg" version="1.1" xmlns:xlink="http://www.w3.org/1999/xlink" xmlns:svgjs="http://svgjs.dev/svgjs" width="1440" height="560" preserveAspectRatio="none" viewBox="0 0 1440 560"><g mask="url(&quot;#SvgjsMask1048&quot;)" fill="none"><rect width="1440" height="560" x="0" y="0" fill="#0e2a47"></rect><path d="M287.58 34.23L278.41 43.16 267.68 36.18 258.5 45.11 247.77 38.12 238.6 47.06 227.87 40.07" stroke="#037b0b" stroke-width="1.25" stroke-dasharray="2, 2"></path><path d="M409.15 461.92a5.6 5.6 0 1 0-0.86-11.16 5.6 5.6 0 1 0 0.86 11.16zM407.92 445.97a5.6 5.6 0 1 0-0.86-11.17 5.6 5.6 0 1 0 0.86 11.17zM406.69 430.02a5.6 5.6 0 1 0-0.86-11.17 5.6 5.6 0 1 0 0.86 11.17zM405.46 414.07a5.6 5.6 0 1 0-0.86-11.17 5.6 5.6 0 1 0 0.86 11.17zM427.56 492.6a5.6 5.6 0 1 0-0.86-11.17 5.6 5.6 0 1 0 0.86 11.17zM426.33 476.65a5.6 5.6 0 1 0-0.86-11.17 5.6 5.6 0 1 0 0.86 11.17zM425.1 460.69a5.6 5.6 0 1 0-0.86-11.16 5.6 5.6 0 1 0 0.86 11.16zM423.87 444.74a5.6 5.6 0 1 0-0.86-11.17 5.6 5.6 0 1 0 0.86 11.17zM445.98 523.27a5.6 5.6 0 1 0-0.86-11.16 5.6 5.6 0 1 0 0.86 11.16zM444.75 507.32a5.6 5.6 0 1 0-0.87-11.17 5.6 5.6 0 1 0 0.87 11.17zM443.52 491.37a5.6 5.6 0 1 0-0.87-11.17 5.6 5.6 0 1 0 0.87 11.17zM442.29 475.42a5.6 5.6 0 1 0-0.87-11.17 5.6 5.6 0 1 0 0.87 11.17z" fill="#d3b714"></path><rect width="288" height="288" clip-path="url(&quot;#SvgjsClipPath1049&quot;)" x="1021.92" y="203.25" fill="url(&quot;#SvgjsPattern1050&quot;)" transform="rotate(113.74, 1165.92, 347.25)"></rect><rect width="127.8" height="127.8" clip-path="url(&quot;#SvgjsClipPath1051&quot;)" x="1134.4" y="101.24" fill="url(&quot;#SvgjsPattern1052&quot;)" transform="rotate(182.9, 1198.3, 165.14)"></rect><rect width="72" height="72" clip-path="url(&quot;#SvgjsClipPath1053&quot;)" x="636.09" y="-21.46" fill="url(&quot;#SvgjsPattern1054&quot;)" transform="rotate(228.47, 672.09, 14.54)"></rect><path d="M1205.62 188.37a5.6 5.6 0 1 0-8.45-7.35 5.6 5.6 0 1 0 8.45 7.35zM1193.55 177.87a5.6 5.6 0 1 0-8.45-7.35 5.6 5.6 0 1 0 8.45 7.35zM1181.48 167.38a5.6 5.6 0 1 0-8.46-7.35 5.6 5.6 0 1 0 8.46 7.35zM1169.4 156.88a5.6 5.6 0 1 0-8.45-7.35 5.6 5.6 0 1 0 8.45 7.35z" stroke="#e73635" stroke-width="2.98" stroke-dasharray="3, 2"></path><circle r="74.23536822619398" cx="1050.78" cy="8.47" stroke="#d3b714" stroke-width="1" stroke-dasharray="4, 4"></circle><path d="M237.91000000000003 116.2 L131.11 164.41L115.23123233761457 71.02623233761456z" stroke="#037b0b" stroke-width="2.55" stroke-dasharray="2, 2"></path><rect width="243.2" height="243.2" clip-path="url(&quot;#SvgjsClipPath1055&quot;)" x="889.59" y="131.19" fill="url(&quot;#SvgjsPattern1056&quot;)" transform="rotate(30.41, 1011.19, 252.79)"></rect><path d="M1193.58 142.9a5.6 5.6 0 1 0 10.08-4.89 5.6 5.6 0 1 0-10.08 4.89zM1207.97 135.92a5.6 5.6 0 1 0 10.08-4.89 5.6 5.6 0 1 0-10.08 4.89zM1222.37 128.94a5.6 5.6 0 1 0 10.08-4.89 5.6 5.6 0 1 0-10.08 4.89zM1236.77 121.96a5.6 5.6 0 1 0 10.08-4.89 5.6 5.6 0 1 0-10.08 4.89zM1171.76 171.25a5.6 5.6 0 1 0 10.08-4.88 5.6 5.6 0 1 0-10.08 4.88zM1186.16 164.27a5.6 5.6 0 1 0 10.08-4.88 5.6 5.6 0 1 0-10.08 4.88zM1200.56 157.29a5.6 5.6 0 1 0 10.07-4.88 5.6 5.6 0 1 0-10.07 4.88zM1214.95 150.31a5.6 5.6 0 1 0 10.08-4.88 5.6 5.6 0 1 0-10.08 4.88z" stroke="#e73635" stroke-width="1" stroke-dasharray="3, 2"></path><path d="M432.68 271.5a5.6 5.6 0 1 0 2.56 10.91 5.6 5.6 0 1 0-2.56-10.91zM436.34 287.08a5.6 5.6 0 1 0 2.56 10.9 5.6 5.6 0 1 0-2.56-10.9zM440 302.65a5.6 5.6 0 1 0 2.56 10.91 5.6 5.6 0 1 0-2.56-10.91zM443.66 318.23a5.6 5.6 0 1 0 2.56 10.9 5.6 5.6 0 1 0-2.56-10.9z" stroke="#d3b714" stroke-width="1" stroke-dasharray="2, 2"></path><path d="M366.15 56.07a5.6 5.6 0 1 0 10.1-4.85 5.6 5.6 0 1 0-10.1 4.85zM380.57 49.14a5.6 5.6 0 1 0 10.1-4.86 5.6 5.6 0 1 0-10.1 4.86zM394.99 42.2a5.6 5.6 0 1 0 10.1-4.85 5.6 5.6 0 1 0-10.1 4.85zM409.41 35.27a5.6 5.6 0 1 0 10.1-4.85 5.6 5.6 0 1 0-10.1 4.85zM344.25 84.36a5.6 5.6 0 1 0 10.09-4.86 5.6 5.6 0 1 0-10.09 4.86zM358.67 77.42a5.6 5.6 0 1 0 10.09-4.85 5.6 5.6 0 1 0-10.09 4.85zM373.09 70.49a5.6 5.6 0 1 0 10.09-4.85 5.6 5.6 0 1 0-10.09 4.85zM387.51 63.56a5.6 5.6 0 1 0 10.09-4.86 5.6 5.6 0 1 0-10.09 4.86z" stroke="#037b0b" stroke-width="1"></path></g><defs><mask id="SvgjsMask1048"><rect width="1440" height="560" fill="#ffffff"></rect></mask><pattern x="0" y="0" width="6" height="6" patternUnits="userSpaceOnUse" id="SvgjsPattern1050"><path d="M3 1L3 5M1 3L5 3" stroke="#d3b714" fill="none" stroke-width="1.75"></path></pattern><clipPath id="SvgjsClipPath1049"><circle r="72" cx="1165.92" cy="347.25"></circle></clipPath><pattern x="0" y="0" width="12.78" height="12.78" patternUnits="userSpaceOnUse" id="SvgjsPattern1052"><path d="M0 12.78L6.39 0L12.78 12.78" stroke="#037b0b" fill="none"></path></pattern><clipPath id="SvgjsClipPath1051"><circle r="31.95" cx="1198.3" cy="165.14"></circle></clipPath><pattern x="0" y="0" width="6" height="6" patternUnits="userSpaceOnUse" id="SvgjsPattern1054"><path d="M3 1L3 5M1 3L5 3" stroke="#e73635" fill="none" stroke-width="1.07"></path></pattern><clipPath id="SvgjsClipPath1053"><circle r="18" cx="672.09" cy="14.54"></circle></clipPath><pattern x="0" y="0" width="12.16" height="12.16" patternUnits="userSpaceOnUse" id="SvgjsPattern1056"><path d="M0 12.16L6.08 0L12.16 12.16" stroke="#e73635" fill="none"></path></pattern><clipPath id="SvgjsClipPath1055"><circle r="60.8" cx="1011.19" cy="252.79"></circle></clipPath></defs></svg>