<svg xmlns="http://www.w3.org/2000/svg" xmlns:svgjs="http://svgjs.dev/svgjs" xmlns:xlink="http://www.w3.org/1999/xlink" width="1440" height="560" preserveAspectRatio="none" version="1.1" viewBox="0 0 1440 560"><g fill="none" mask="url(&quot;#SvgjsMask1048&quot;)"><rect width="1440" height="560" x="0" y="0" fill="#0e2a47"/><path stroke="#037b0b" stroke-dasharray="2 2" stroke-width="1.25" d="M287.58 34.23L278.41 43.16 267.68 36.18 258.5 45.11 247.77 38.12 238.6 47.06 227.87 40.07"/><path fill="#d3b714" d="M409.15 461.92a5.6 5.6 0 1 0-0.86-11.16 5.6 5.6 0 1 0 0.86 11.16zM407.92 445.97a5.6 5.6 0 1 0-0.86-11.17 5.6 5.6 0 1 0 0.86 11.17zM406.69 430.02a5.6 5.6 0 1 0-0.86-11.17 5.6 5.6 0 1 0 0.86 11.17zM405.46 414.07a5.6 5.6 0 1 0-0.86-11.17 5.6 5.6 0 1 0 0.86 11.17zM427.56 492.6a5.6 5.6 0 1 0-0.86-11.17 5.6 5.6 0 1 0 0.86 11.17zM426.33 476.65a5.6 5.6 0 1 0-0.86-11.17 5.6 5.6 0 1 0 0.86 11.17zM425.1 460.69a5.6 5.6 0 1 0-0.86-11.16 5.6 5.6 0 1 0 0.86 11.16zM423.87 444.74a5.6 5.6 0 1 0-0.86-11.17 5.6 5.6 0 1 0 0.86 11.17zM445.98 523.27a5.6 5.6 0 1 0-0.86-11.16 5.6 5.6 0 1 0 0.86 11.16zM444.75 507.32a5.6 5.6 0 1 0-0.87-11.17 5.6 5.6 0 1 0 0.87 11.17zM443.52 491.37a5.6 5.6 0 1 0-0.87-11.17 5.6 5.6 0 1 0 0.87 11.17zM442.29 475.42a5.6 5.6 0 1 0-0.87-11.17 5.6 5.6 0 1 0 0.87 11.17z"/><rect width="288" height="288" x="1021.92" y="203.25" fill="url(&quot;#SvgjsPattern1050&quot;)" clip-path="url(&quot;#SvgjsClipPath1049&quot;)" transform="rotate(113.74, 1165.92, 347.25)"/><rect width="127.8" height="127.8" x="1134.4" y="101.24" fill="url(&quot;#SvgjsPattern1052&quot;)" clip-path="url(&quot;#SvgjsClipPath1051&quot;)" transform="rotate(182.9, 1198.3, 165.14)"/><rect width="72" height="72" x="636.09" y="-21.46" fill="url(&quot;#SvgjsPattern1054&quot;)" clip-path="url(&quot;#SvgjsClipPath1053&quot;)" transform="rotate(228.47, 672.09, 14.54)"/><path stroke="#e73635" stroke-dasharray="3 2" stroke-width="2.98" d="M1205.62 188.37a5.6 5.6 0 1 0-8.45-7.35 5.6 5.6 0 1 0 8.45 7.35zM1193.55 177.87a5.6 5.6 0 1 0-8.45-7.35 5.6 5.6 0 1 0 8.45 7.35zM1181.48 167.38a5.6 5.6 0 1 0-8.46-7.35 5.6 5.6 0 1 0 8.46 7.35zM1169.4 156.88a5.6 5.6 0 1 0-8.45-7.35 5.6 5.6 0 1 0 8.45 7.35z"/><circle cx="1050.78" cy="8.47" r="74.235" stroke="#d3b714" stroke-dasharray="4 4" stroke-width="1"/><path stroke="#037b0b" stroke-dasharray="2 2" stroke-width="2.55" d="M237.91000000000003 116.2 L131.11 164.41L115.23123233761457 71.02623233761456z"/><rect width="243.2" height="243.2" x="889.59" y="131.19" fill="url(&quot;#SvgjsPattern1056&quot;)" clip-path="url(&quot;#SvgjsClipPath1055&quot;)" transform="rotate(30.41, 1011.19, 252.79)"/><path stroke="#e73635" stroke-dasharray="3 2" stroke-width="1" d="M1193.58 142.9a5.6 5.6 0 1 0 10.08-4.89 5.6 5.6 0 1 0-10.08 4.89zM1207.97 135.92a5.6 5.6 0 1 0 10.08-4.89 5.6 5.6 0 1 0-10.08 4.89zM1222.37 128.94a5.6 5.6 0 1 0 10.08-4.89 5.6 5.6 0 1 0-10.08 4.89zM1236.77 121.96a5.6 5.6 0 1 0 10.08-4.89 5.6 5.6 0 1 0-10.08 4.89zM1171.76 171.25a5.6 5.6 0 1 0 10.08-4.88 5.6 5.6 0 1 0-10.08 4.88zM1186.16 164.27a5.6 5.6 0 1 0 10.08-4.88 5.6 5.6 0 1 0-10.08 4.88zM1200.56 157.29a5.6 5.6 0 1 0 10.07-4.88 5.6 5.6 0 1 0-10.07 4.88zM1214.95 150.31a5.6 5.6 0 1 0 10.08-4.88 5.6 5.6 0 1 0-10.08 4.88z"/><path stroke="#d3b714" stroke-dasharray="2 2" stroke-width="1" d="M432.68 271.5a5.6 5.6 0 1 0 2.56 10.91 5.6 5.6 0 1 0-2.56-10.91zM436.34 287.08a5.6 5.6 0 1 0 2.56 10.9 5.6 5.6 0 1 0-2.56-10.9zM440 302.65a5.6 5.6 0 1 0 2.56 10.91 5.6 5.6 0 1 0-2.56-10.91zM443.66 318.23a5.6 5.6 0 1 0 2.56 10.9 5.6 5.6 0 1 0-2.56-10.9z"/><path stroke="#037b0b" stroke-width="1" d="M366.15 56.07a5.6 5.6 0 1 0 10.1-4.85 5.6 5.6 0 1 0-10.1 4.85zM380.57 49.14a5.6 5.6 0 1 0 10.1-4.86 5.6 5.6 0 1 0-10.1 4.86zM394.99 42.2a5.6 5.6 0 1 0 10.1-4.85 5.6 5.6 0 1 0-10.1 4.85zM409.41 35.27a5.6 5.6 0 1 0 10.1-4.85 5.6 5.6 0 1 0-10.1 4.85zM344.25 84.36a5.6 5.6 0 1 0 10.09-4.86 5.6 5.6 0 1 0-10.09 4.86zM358.67 77.42a5.6 5.6 0 1 0 10.09-4.85 5.6 5.6 0 1 0-10.09 4.85zM373.09 70.49a5.6 5.6 0 1 0 10.09-4.85 5.6 5.6 0 1 0-10.09 4.85zM387.51 63.56a5.6 5.6 0 1 0 10.09-4.86 5.6 5.6 0 1 0-10.09 4.86z"/></g><defs><mask id="SvgjsMask1048"><rect width="1440" height="560" fill="#fff"/></mask><pattern id="SvgjsPattern1050" width="6" height="6" x="0" y="0" patternUnits="userSpaceOnUse"><path fill="none" stroke="#d3b714" stroke-width="1.75" d="M3 1L3 5M1 3L5 3"/></pattern><clipPath id="SvgjsClipPath1049"><circle cx="1165.92" cy="347.25" r="72"/></clipPath><pattern id="SvgjsPattern1052" width="12.78" height="12.78" x="0" y="0" patternUnits="userSpaceOnUse"><path fill="none" stroke="#037b0b" d="M0 12.78L6.39 0L12.78 12.78"/></pattern><clipPath id="SvgjsClipPath1051"><circle cx="1198.3" cy="165.14" r="31.95"/></clipPath><pattern id="SvgjsPattern1054" width="6" height="6" x="0" y="0" patternUnits="userSpaceOnUse"><path fill="none" stroke="#e73635" stroke-width="1.07" d="M3 1L3 5M1 3L5 3"/></pattern><clipPath id="SvgjsClipPath1053"><circle cx="672.09" cy="14.54" r="18"/></clipPath><pattern id="SvgjsPattern1056" width="12.16" height="12.16" x="0" y="0" patternUnits="userSpaceOnUse"><path fill="none" stroke="#e73635" d="M0 12.16L6.08 0L12.16 12.16"/></pattern><clipPath id="SvgjsClipPath1055"><circle cx="1011.19" cy="252.79" r="60.8"/></clipPath></defs></svg>